<?xml version="1.0" encoding="UTF-8" standalone="no"?>
<!DOCTYPE svg PUBLIC "-//W3C//DTD SVG 1.1//EN"
 "http://www.w3.org/Graphics/SVG/1.1/DTD/svg11.dtd">
<!-- Generated by graphviz version 2.38.0 (20140413.2041)
 -->
<!-- Title: G Pages: 1 -->
<svg width="337pt" height="311pt"
 viewBox="0.00 0.00 336.62 311.00" xmlns="http://www.w3.org/2000/svg" xmlns:xlink="http://www.w3.org/1999/xlink">
<g id="graph0" class="graph" transform="scale(1 1) rotate(0) translate(4 307)">
<title>G</title>
<polygon fill="white" stroke="none" points="-4,4 -4,-307 332.623,-307 332.623,4 -4,4"/>
<g id="clust1" class="cluster"><title>cluster_Global</title>
<path fill="none" stroke="gray" d="M208.208,-8C208.208,-8 308.623,-8 308.623,-8 314.623,-8 320.623,-14 320.623,-20 320.623,-20 320.623,-283 320.623,-283 320.623,-289 314.623,-295 308.623,-295 308.623,-295 208.208,-295 208.208,-295 202.208,-295 196.208,-289 196.208,-283 196.208,-283 196.208,-20 196.208,-20 196.208,-14 202.208,-8 208.208,-8"/>
<text text-anchor="middle" x="258.415" y="-282.2" font-family="Times,serif" font-size="11.00" fill="gray">Global</text>
</g>
<!-- \\PageController -->
<g id="node1" class="node"><title>\\PageController</title>
<polygon fill="none" stroke="black" points="312.831,-268 204,-268 204,-232 312.831,-232 312.831,-268"/>
<text text-anchor="middle" x="258.415" y="-246.7" font-family="Courier,monospace" font-size="11.00">PageController</text>
</g>
<!-- \\CoreController -->
<g id="node6" class="node"><title>\\CoreController</title>
<ellipse fill="none" stroke="black" cx="66.1039" cy="-223" rx="66.208" ry="18"/>
<text text-anchor="middle" x="66.1039" y="-218.8" font-family="Times,serif" font-size="14.00" fill="gray">\CoreController</text>
</g>
<!-- \\PageController&#45;&gt;\\CoreController -->
<g id="edge1" class="edge"><title>\\PageController&#45;&gt;\\CoreController</title>
<path fill="none" stroke="black" d="M204.15,-242.443C182.694,-239.399 157.687,-235.851 134.952,-232.626"/>
<polygon fill="none" stroke="black" points="135.42,-229.157 125.027,-231.218 134.436,-236.088 135.42,-229.157"/>
</g>
<!-- \\UserController -->
<g id="node2" class="node"><title>\\UserController</title>
<polygon fill="none" stroke="black" points="312.831,-214 204,-214 204,-178 312.831,-178 312.831,-214"/>
<text text-anchor="middle" x="258.415" y="-192.7" font-family="Courier,monospace" font-size="11.00">UserController</text>
</g>
<!-- \\UserController&#45;&gt;\\CoreController -->
<g id="edge2" class="edge"><title>\\UserController&#45;&gt;\\CoreController</title>
<path fill="none" stroke="black" d="M204.15,-203.557C182.694,-206.601 157.687,-210.149 134.952,-213.374"/>
<polygon fill="none" stroke="black" points="134.436,-209.912 125.027,-214.782 135.42,-216.843 134.436,-209.912"/>
</g>
<!-- \\UserModel -->
<g id="node3" class="node"><title>\\UserModel</title>
<polygon fill="none" stroke="black" points="296.326,-160 220.505,-160 220.505,-124 296.326,-124 296.326,-160"/>
<text text-anchor="middle" x="258.415" y="-138.7" font-family="Courier,monospace" font-size="11.00">UserModel</text>
</g>
<!-- \\CoreModel -->
<g id="node7" class="node"><title>\\CoreModel</title>
<ellipse fill="none" stroke="black" cx="66.1039" cy="-142" rx="52.6865" ry="18"/>
<text text-anchor="middle" x="66.1039" y="-137.8" font-family="Times,serif" font-size="14.00" fill="gray">\CoreModel</text>
</g>
<!-- \\UserModel&#45;&gt;\\CoreModel -->
<g id="edge3" class="edge"><title>\\UserModel&#45;&gt;\\CoreModel</title>
<path fill="none" stroke="black" d="M220.27,-142C194.531,-142 159.635,-142 129.652,-142"/>
<polygon fill="none" stroke="black" points="129.275,-138.5 119.274,-142 129.274,-145.5 129.275,-138.5"/>
</g>
<!-- \\Load -->
<g id="node4" class="node"><title>\\Load</title>
<polygon fill="none" stroke="black" points="285.415,-106 231.415,-106 231.415,-70 285.415,-70 285.415,-106"/>
<text text-anchor="middle" x="258.415" y="-84.7" font-family="Courier,monospace" font-size="11.00">Load</text>
</g>
<!-- \\Mail -->
<g id="node5" class="node"><title>\\Mail</title>
<polygon fill="none" stroke="black" points="285.415,-52 231.415,-52 231.415,-16 285.415,-16 285.415,-52"/>
<text text-anchor="middle" x="258.415" y="-30.7" font-family="Courier,monospace" font-size="11.00">Mail</text>
</g>
</g>
</svg>
