<?xml version="1.0" encoding="UTF-8" standalone="no"?>
<!DOCTYPE svg PUBLIC "-//W3C//DTD SVG 1.1//EN"
 "http://www.w3.org/Graphics/SVG/1.1/DTD/svg11.dtd">
<!-- Generated by graphviz version 2.38.0 (20140413.2041)
 -->
<!-- Title: G Pages: 1 -->
<svg width="355pt" height="851pt"
 viewBox="0.00 0.00 355.23 851.00" xmlns="http://www.w3.org/2000/svg" xmlns:xlink="http://www.w3.org/1999/xlink">
<g id="graph0" class="graph" transform="scale(1 1) rotate(0) translate(4 847)">
<title>G</title>
<polygon fill="white" stroke="none" points="-4,4 -4,-847 351.234,-847 351.234,4 -4,4"/>
<g id="clust1" class="cluster"><title>cluster_Global</title>
<path fill="none" stroke="gray" d="M20,-8C20,-8 327.234,-8 327.234,-8 333.234,-8 339.234,-14 339.234,-20 339.234,-20 339.234,-823 339.234,-823 339.234,-829 333.234,-835 327.234,-835 327.234,-835 20,-835 20,-835 14,-835 8,-829 8,-823 8,-823 8,-20 8,-20 8,-14 14,-8 20,-8"/>
<text text-anchor="middle" x="173.617" y="-822.2" font-family="Times,serif" font-size="11.00" fill="gray">Global</text>
</g>
<!-- \\AjaxController -->
<g id="node1" class="node"><title>\\AjaxController</title>
<polygon fill="none" stroke="black" points="318.241,-808 209.409,-808 209.409,-772 318.241,-772 318.241,-808"/>
<text text-anchor="middle" x="263.825" y="-786.7" font-family="Courier,monospace" font-size="11.00">AjaxController</text>
</g>
<!-- \\CoreController -->
<g id="node13" class="node"><title>\\CoreController</title>
<polygon fill="none" stroke="black" points="124.623,-646 15.7917,-646 15.7917,-610 124.623,-610 124.623,-646"/>
<text text-anchor="middle" x="70.2075" y="-624.7" font-family="Courier,monospace" font-size="11.00">CoreController</text>
</g>
<!-- \\AjaxController&#45;&gt;\\CoreController -->
<g id="edge1" class="edge"><title>\\AjaxController&#45;&gt;\\CoreController</title>
<path fill="none" stroke="black" d="M211.586,-771.872C206.287,-769.211 201.125,-766.254 196.415,-763 152.371,-732.571 112.37,-684.181 89.9709,-654.351"/>
<polygon fill="none" stroke="black" points="92.6254,-652.055 83.8653,-646.096 86.9973,-656.217 92.6254,-652.055"/>
</g>
<!-- \\EventController -->
<g id="node2" class="node"><title>\\EventController</title>
<polygon fill="none" stroke="black" points="321.341,-754 206.309,-754 206.309,-718 321.341,-718 321.341,-754"/>
<text text-anchor="middle" x="263.825" y="-732.7" font-family="Courier,monospace" font-size="11.00">EventController</text>
</g>
<!-- \\EventController&#45;&gt;\\CoreController -->
<g id="edge2" class="edge"><title>\\EventController&#45;&gt;\\CoreController</title>
<path fill="none" stroke="black" d="M215.167,-717.896C208.777,-715.101 202.376,-712.105 196.415,-709 163.962,-692.097 129.179,-669.169 104.531,-652.02"/>
<polygon fill="none" stroke="black" points="106.452,-649.093 96.2554,-646.215 102.432,-654.823 106.452,-649.093"/>
</g>
<!-- \\LogController -->
<g id="node3" class="node"><title>\\LogController</title>
<polygon fill="none" stroke="black" points="314.639,-700 213.011,-700 213.011,-664 314.639,-664 314.639,-700"/>
<text text-anchor="middle" x="263.825" y="-678.7" font-family="Courier,monospace" font-size="11.00">LogController</text>
</g>
<!-- \\LogController&#45;&gt;\\CoreController -->
<g id="edge3" class="edge"><title>\\LogController&#45;&gt;\\CoreController</title>
<path fill="none" stroke="black" d="M212.98,-667.953C188.996,-661.194 159.975,-653.016 134.454,-645.824"/>
<polygon fill="none" stroke="black" points="135.07,-642.361 124.495,-643.017 133.171,-649.098 135.07,-642.361"/>
</g>
<!-- \\NotfoundController -->
<g id="node4" class="node"><title>\\NotfoundController</title>
<polygon fill="none" stroke="black" points="331.144,-646 196.505,-646 196.505,-610 331.144,-610 331.144,-646"/>
<text text-anchor="middle" x="263.825" y="-624.7" font-family="Courier,monospace" font-size="11.00">NotfoundController</text>
</g>
<!-- \\NotfoundController&#45;&gt;\\CoreController -->
<g id="edge4" class="edge"><title>\\NotfoundController&#45;&gt;\\CoreController</title>
<path fill="none" stroke="black" d="M196.344,-628C176.37,-628 154.513,-628 134.735,-628"/>
<polygon fill="none" stroke="black" points="134.603,-624.5 124.602,-628 134.602,-631.5 134.603,-624.5"/>
</g>
<!-- \\PageController -->
<g id="node5" class="node"><title>\\PageController</title>
<polygon fill="none" stroke="black" points="318.241,-592 209.409,-592 209.409,-556 318.241,-556 318.241,-592"/>
<text text-anchor="middle" x="263.825" y="-570.7" font-family="Courier,monospace" font-size="11.00">PageController</text>
</g>
<!-- \\PageController&#45;&gt;\\CoreController -->
<g id="edge5" class="edge"><title>\\PageController&#45;&gt;\\CoreController</title>
<path fill="none" stroke="black" d="M209.449,-589.042C186.187,-595.597 158.744,-603.331 134.465,-610.173"/>
<polygon fill="none" stroke="black" points="133.305,-606.864 124.629,-612.945 135.204,-613.601 133.305,-606.864"/>
</g>
<!-- \\ProjectController -->
<g id="node6" class="node"><title>\\ProjectController</title>
<polygon fill="none" stroke="black" points="328.043,-538 199.606,-538 199.606,-502 328.043,-502 328.043,-538"/>
<text text-anchor="middle" x="263.825" y="-516.7" font-family="Courier,monospace" font-size="11.00">ProjectController</text>
</g>
<!-- \\ProjectController&#45;&gt;\\CoreController -->
<g id="edge6" class="edge"><title>\\ProjectController&#45;&gt;\\CoreController</title>
<path fill="none" stroke="black" d="M215.167,-538.104C208.777,-540.899 202.376,-543.895 196.415,-547 163.962,-563.903 129.179,-586.831 104.531,-603.98"/>
<polygon fill="none" stroke="black" points="102.432,-601.177 96.2554,-609.785 106.452,-606.907 102.432,-601.177"/>
</g>
<!-- \\UserController -->
<g id="node7" class="node"><title>\\UserController</title>
<polygon fill="none" stroke="black" points="318.241,-484 209.409,-484 209.409,-448 318.241,-448 318.241,-484"/>
<text text-anchor="middle" x="263.825" y="-462.7" font-family="Courier,monospace" font-size="11.00">UserController</text>
</g>
<!-- \\UserController&#45;&gt;\\CoreController -->
<g id="edge7" class="edge"><title>\\UserController&#45;&gt;\\CoreController</title>
<path fill="none" stroke="black" d="M211.586,-484.128C206.287,-486.789 201.125,-489.746 196.415,-493 152.371,-523.429 112.37,-571.819 89.9709,-601.649"/>
<polygon fill="none" stroke="black" points="86.9973,-599.783 83.8653,-609.904 92.6254,-603.945 86.9973,-599.783"/>
</g>
<!-- \\EventModel -->
<g id="node8" class="node"><title>\\EventModel</title>
<polygon fill="none" stroke="black" points="304.835,-430 222.814,-430 222.814,-394 304.835,-394 304.835,-430"/>
<text text-anchor="middle" x="263.825" y="-408.7" font-family="Courier,monospace" font-size="11.00">EventModel</text>
</g>
<!-- \\CoreModel -->
<g id="node14" class="node"><title>\\CoreModel</title>
<polygon fill="none" stroke="black" points="108.118,-322 32.2967,-322 32.2967,-286 108.118,-286 108.118,-322"/>
<text text-anchor="middle" x="70.2075" y="-300.7" font-family="Courier,monospace" font-size="11.00">CoreModel</text>
</g>
<!-- \\EventModel&#45;&gt;\\CoreModel -->
<g id="edge8" class="edge"><title>\\EventModel&#45;&gt;\\CoreModel</title>
<path fill="none" stroke="black" d="M222.591,-397.061C213.822,-393.415 204.694,-389.312 196.415,-385 163.962,-368.097 129.179,-345.169 104.531,-328.02"/>
<polygon fill="none" stroke="black" points="106.452,-325.093 96.2554,-322.215 102.432,-330.823 106.452,-325.093"/>
</g>
<!-- \\LogModel -->
<g id="node9" class="node"><title>\\LogModel</title>
<polygon fill="none" stroke="black" points="298.134,-376 229.516,-376 229.516,-340 298.134,-340 298.134,-376"/>
<text text-anchor="middle" x="263.825" y="-354.7" font-family="Courier,monospace" font-size="11.00">LogModel</text>
</g>
<!-- \\LogModel&#45;&gt;\\CoreModel -->
<g id="edge9" class="edge"><title>\\LogModel&#45;&gt;\\CoreModel</title>
<path fill="none" stroke="black" d="M229.448,-348.594C198.608,-339.903 152.484,-326.905 117.978,-317.18"/>
<polygon fill="none" stroke="black" points="118.699,-313.748 108.125,-314.404 116.801,-320.485 118.699,-313.748"/>
</g>
<!-- \\PageModel -->
<g id="node10" class="node"><title>\\PageModel</title>
<polygon fill="none" stroke="black" points="301.735,-322 225.914,-322 225.914,-286 301.735,-286 301.735,-322"/>
<text text-anchor="middle" x="263.825" y="-300.7" font-family="Courier,monospace" font-size="11.00">PageModel</text>
</g>
<!-- \\PageModel&#45;&gt;\\CoreModel -->
<g id="edge10" class="edge"><title>\\PageModel&#45;&gt;\\CoreModel</title>
<path fill="none" stroke="black" d="M225.879,-304C195.262,-304 151.55,-304 118.401,-304"/>
<polygon fill="none" stroke="black" points="118.04,-300.5 108.04,-304 118.04,-307.5 118.04,-300.5"/>
</g>
<!-- \\ProjectModel -->
<g id="node11" class="node"><title>\\ProjectModel</title>
<polygon fill="none" stroke="black" points="311.538,-268 216.112,-268 216.112,-232 311.538,-232 311.538,-268"/>
<text text-anchor="middle" x="263.825" y="-246.7" font-family="Courier,monospace" font-size="11.00">ProjectModel</text>
</g>
<!-- \\ProjectModel&#45;&gt;\\CoreModel -->
<g id="edge11" class="edge"><title>\\ProjectModel&#45;&gt;\\CoreModel</title>
<path fill="none" stroke="black" d="M215.95,-263.21C186.087,-271.626 147.553,-282.485 117.754,-290.883"/>
<polygon fill="none" stroke="black" points="116.684,-287.548 108.008,-293.629 118.582,-294.285 116.684,-287.548"/>
</g>
<!-- \\UserModel -->
<g id="node12" class="node"><title>\\UserModel</title>
<polygon fill="none" stroke="black" points="301.735,-214 225.914,-214 225.914,-178 301.735,-178 301.735,-214"/>
<text text-anchor="middle" x="263.825" y="-192.7" font-family="Courier,monospace" font-size="11.00">UserModel</text>
</g>
<!-- \\UserModel&#45;&gt;\\CoreModel -->
<g id="edge12" class="edge"><title>\\UserModel&#45;&gt;\\CoreModel</title>
<path fill="none" stroke="black" d="M226.076,-209.505C216.271,-213.495 205.798,-218.113 196.415,-223 163.962,-239.903 129.179,-262.831 104.531,-279.98"/>
<polygon fill="none" stroke="black" points="102.432,-277.177 96.2554,-285.785 106.452,-282.907 102.432,-277.177"/>
</g>
<!-- \\Load -->
<g id="node15" class="node"><title>\\Load</title>
<polygon fill="none" stroke="black" points="290.825,-160 236.825,-160 236.825,-124 290.825,-124 290.825,-160"/>
<text text-anchor="middle" x="263.825" y="-138.7" font-family="Courier,monospace" font-size="11.00">Load</text>
</g>
<!-- \\Logger -->
<g id="node16" class="node"><title>\\Logger</title>
<polygon fill="none" stroke="black" points="291.433,-106 236.217,-106 236.217,-70 291.433,-70 291.433,-106"/>
<text text-anchor="middle" x="263.825" y="-84.7" font-family="Courier,monospace" font-size="11.00">Logger</text>
</g>
<!-- \\Mail -->
<g id="node17" class="node"><title>\\Mail</title>
<polygon fill="none" stroke="black" points="290.825,-52 236.825,-52 236.825,-16 290.825,-16 290.825,-52"/>
<text text-anchor="middle" x="263.825" y="-30.7" font-family="Courier,monospace" font-size="11.00">Mail</text>
</g>
</g>
</svg>
